<?xml version="1.0" encoding="UTF-8"?>
<svg width="511px" height="130px" viewBox="0 0 511 130" version="1.1" xmlns="http://www.w3.org/2000/svg" xmlns:xlink="http://www.w3.org/1999/xlink">
    <!-- Generator: Sketch 57.1 (83088) - https://sketch.com -->
    <title>DamacHotelandResorts - logo</title>
    <desc>Created with Sketch.</desc>
    <g id="Page-1" stroke="none" stroke-width="1" fill="none" fill-rule="evenodd">
        <g id="DamacHotelandResorts---logo" fill="#00000A" fill-rule="nonzero">
            <path d="M99.31,31 C103.37,21.28 103.02,13.73 98.27,8.33 C93.51,2.96 84.53,0.25 71.35,0.25 L26.7,0.25 L22.66,10 L53.4,10 C69.08,10 73.63,17.81 68.22,30.76 C65.09,38.24 62.33,45.13 55.8,48.19 C49.82,51 43.66,51.82 32.68,51.82 L18.46,51.79 L29.08,26.59 L15.68,26.59 L0.6,62.47 L41.06,62.47 C52.41,62.47 61.37,61.42 67.97,59.33 C75.21,57 81.69,53.19 87.41,47.88 C92.76,42.82 96.72,37.2 99.31,31 L99.31,31 Z M378.39,0.19 L378.4,0.24 L361.82,0.24 L298.12,59.85 L323.02,0.25 L295.72,0.25 L262.72,26.09 L245.75,40.04 L244.97,40.04 L252.96,19.72 L243.22,0.25 L215.79,0.25 L190.86,59.96 L176.49,0.25 L146.43,0.25 L80.03,62.47 L96.62,62.47 L113.59,46.21 L155.42,46.21 L158.76,62.47 L203.21,62.47 L219.27,24.01 C220.08,22.08 220.86,19.87 221.61,17.38 C221.68,19.39 222.23,21.52 223.22,23.77 L237.35,55.85 L239.75,55.85 L280.18,23.89 C281.69,22.69 283.99,20.53 287.06,17.39 C285.49,20.29 284.4,22.5 283.76,24.02 L267.69,62.48 L297.04,62.48 L297.04,62.46 L327.98,62.46 L344.76,46.11 L388.21,46.11 L391.7,62.46 L406.96,62.46 L392.08,0.2 L378.39,0.2 L378.39,0.19 Z M122.34,37.66 L148.81,12.33 L153.59,37.66 L122.34,37.66 Z M353.54,37.57 L380.72,11.1 L386.37,37.57 L353.54,37.57 L353.54,37.57 Z M510.74,0.14 L465.69,0.14 C452.49,0.14 441.25,2.85 432,8.24 C422.75,13.64 416.08,21.21 412.01,30.93 C409.42,37.11 408.69,42.77 409.8,47.8 C411.11,53.14 414.39,56.96 419.69,59.28 C424.52,61.36 432.63,62.42 443.97,62.42 L484.36,62.42 L488.39,52.54 L465.64,52.54 C454.67,52.54 447.37,51.13 443.73,48.3 C439.76,45.25 440.2,38.18 443.3,30.67 C448.74,17.7 460.08,9.62 475.76,9.62 L493.4,9.62 L489.36,19.38 L502.73,19.38 L510.74,0.14 Z" id="Shape"></path>
            <polygon id="Path" points="119.17 95.73 119.17 110.1 100.48 110.1 100.48 95.73 95.72 95.73 95.72 128.98 100.48 128.98 100.48 114.51 119.17 114.51 119.17 128.98 123.93 128.98 123.93 95.73"></polygon>
            <g id="Group" transform="translate(128.000000, 102.000000)">
                <path d="M11.93,8.94 C9.85,8.94 8.15,9.62 6.81,10.99 C5.48,12.35 4.81,14.09 4.81,16.2 C4.81,18.3 5.49,20 6.86,21.33 C8.22,22.65 9.98,23.32 12.12,23.32 C14.25,23.32 15.99,22.65 17.34,21.31 C18.7,19.97 19.38,18.25 19.38,16.16 C19.38,14.08 18.67,12.36 17.26,11 C15.84,9.62 14.07,8.94 11.93,8.94 M12.16,5.03 C15.49,5.03 18.26,6.1 20.47,8.25 C22.67,10.4 23.78,13.1 23.78,16.36 C23.78,19.52 22.66,22.14 20.42,24.23 C18.18,26.32 15.37,27.36 11.97,27.36 C8.69,27.36 5.94,26.3 3.73,24.18 C1.52,22.06 0.42,19.42 0.42,16.24 C0.42,13.03 1.53,10.37 3.76,8.23 C6,6.1 8.8,5.03 12.16,5.03" id="Shape"></path>
                <path d="M24.54,8.56 L32.68,0.56 L32.68,5.08 L39.61,5.08 L39.61,8.99 L32.68,8.99 L32.68,19.71 C32.68,22.21 33.72,23.46 35.8,23.46 C37.35,23.46 39,22.95 40.73,21.91 L40.73,25.96 C39.06,26.9 37.25,27.37 35.28,27.37 C33.3,27.37 31.65,26.79 30.33,25.63 C29.92,25.28 29.58,24.89 29.31,24.45 C29.04,24.01 28.81,23.44 28.63,22.74 C28.45,22.03 28.36,20.69 28.36,18.7 L28.36,8.99 L24.55,8.99 L24.55,8.56 L24.54,8.56 Z" id="Path"></path>
                <path d="M46.23,13.82 L57.25,13.82 C57.14,12.09 56.62,10.76 55.7,9.82 C54.78,8.89 53.54,8.41 51.99,8.41 C50.43,8.41 49.16,8.88 48.17,9.82 C47.18,10.75 46.53,12.09 46.23,13.82 L46.23,13.82 Z M61.53,16.41 L46.13,16.41 C46.24,18.51 46.94,20.17 48.24,21.41 C49.53,22.65 51.2,23.27 53.25,23.27 C56.11,23.27 58.74,22.38 61.15,20.6 L61.15,24.84 C59.82,25.73 58.5,26.36 57.19,26.74 C55.88,27.12 54.35,27.31 52.58,27.31 C50.17,27.31 48.21,26.81 46.72,25.81 C45.23,24.81 44.03,23.47 43.14,21.78 C42.25,20.09 41.8,18.13 41.8,15.91 C41.8,12.58 42.74,9.87 44.63,7.78 C46.52,5.69 48.97,4.65 51.98,4.65 C54.88,4.65 57.2,5.67 58.93,7.7 C60.66,9.73 61.52,12.45 61.52,15.87 L61.52,16.41 L61.53,16.41 Z" id="Shape"></path>
            </g>
            <rect id="Rectangle" x="193.34" y="95.73" width="4.33" height="33.25"></rect>
            <g id="Group" transform="translate(201.000000, 95.000000)">
                <path d="M0.89,32.41 L0.89,27.75 C2.11,28.61 3.36,29.3 4.64,29.83 C5.92,30.36 6.99,30.62 7.86,30.62 C8.77,30.62 9.54,30.4 10.19,29.96 C10.84,29.52 11.17,28.98 11.17,28.36 C11.17,27.73 10.96,27.2 10.54,26.78 C10.12,26.36 9.21,25.75 7.81,24.96 C5.02,23.4 3.19,22.07 2.32,20.97 C1.46,19.87 1.02,18.66 1.02,17.36 C1.02,15.68 1.68,14.31 2.98,13.24 C4.29,12.18 5.97,11.64 8.04,11.64 C10.18,11.64 12.38,12.24 14.63,13.45 L14.63,17.73 C12.06,16.18 9.96,15.4 8.32,15.4 C7.48,15.4 6.8,15.58 6.29,15.94 C5.77,16.3 5.52,16.77 5.52,17.36 C5.52,17.87 5.75,18.35 6.22,18.82 C6.69,19.28 7.51,19.84 8.68,20.49 L10.23,21.37 C13.88,23.43 15.71,25.72 15.71,28.22 C15.71,30.01 15.01,31.49 13.6,32.63 C12.2,33.78 10.39,34.36 8.19,34.36 C6.89,34.36 5.73,34.22 4.71,33.94 C3.7,33.67 2.43,33.16 0.89,32.41" id="Path"></path>
                <path d="M42.42,14.27 L44.24,12.98 C45.93,11.79 46.78,10.4 46.78,8.83 C46.78,7.86 46.43,7.05 45.72,6.4 C45.01,5.75 44.12,5.42 43.04,5.42 C41.99,5.42 41.13,5.72 40.45,6.33 C39.77,6.93 39.43,7.69 39.43,8.59 C39.43,9.47 39.7,10.41 40.23,11.44 C40.76,12.46 41.49,13.41 42.42,14.27 L42.42,14.27 Z M45.53,27.1 L46.6,26.12 L41.2,19.88 L39.1,21.36 C36.62,23.03 35.38,24.72 35.38,26.43 C35.38,27.37 35.79,28.17 36.59,28.84 C37.4,29.5 38.38,29.84 39.52,29.84 C40.41,29.84 41.41,29.59 42.53,29.08 C43.65,28.57 44.65,27.91 45.53,27.1 L45.53,27.1 Z M53.41,33.98 L49.54,29.44 C49.21,29.77 48.63,30.26 47.82,30.9 L47.77,30.95 C46.64,31.89 45.25,32.69 43.59,33.36 C41.93,34.03 40.37,34.37 38.91,34.37 C36.61,34.37 34.65,33.62 33.05,32.12 C31.45,30.62 30.64,28.79 30.64,26.63 C30.64,25.07 31.03,23.67 31.82,22.42 C32.61,21.17 33.89,19.89 35.66,18.59 L35.73,18.52 C36.78,17.74 37.68,17.15 38.44,16.73 C35.93,14.05 34.68,11.48 34.68,9.02 C34.68,6.75 35.45,4.91 36.99,3.5 C38.53,2.09 40.53,1.38 42.99,1.38 C45.4,1.38 47.39,2.07 48.94,3.45 C50.49,4.83 51.27,6.6 51.27,8.74 C51.27,11.65 49.33,14.48 45.44,17.23 L45.11,17.49 L49.8,22.83 C51.17,21.34 52.36,19.55 53.37,17.47 L58.13,17.47 C56.98,20.42 55.18,23.33 52.71,26.19 L59.46,33.99 L53.41,33.99 L53.41,33.98 Z" id="Shape"></path>
                <path d="M81.3,4.77 L79.87,4.77 L79.87,15.27 L81.68,15.27 C84.09,15.27 85.75,15.06 86.64,14.65 C87.53,14.23 88.24,13.61 88.73,12.78 C89.23,11.95 89.48,11 89.48,9.94 C89.48,8.89 89.2,7.94 88.65,7.09 C88.09,6.24 87.31,5.65 86.3,5.29 C85.3,4.95 83.63,4.77 81.3,4.77 L81.3,4.77 Z M75.11,33.98 L75.11,0.73 L83.44,0.73 C86.81,0.73 89.48,1.56 91.45,3.23 C93.43,4.9 94.42,7.15 94.42,9.99 C94.42,11.93 93.94,13.6 92.97,15.01 C92,16.42 90.61,17.48 88.8,18.18 C89.86,18.88 90.9,19.83 91.92,21.03 C92.94,22.24 94.37,24.34 96.2,27.34 C97.36,29.23 98.29,30.65 98.99,31.6 L100.75,33.98 L95.09,33.98 L93.64,31.79 C93.59,31.71 93.5,31.58 93.36,31.39 L92.43,30.08 L90.95,27.65 L89.36,25.06 C88.38,23.69 87.48,22.61 86.66,21.8 C85.84,20.99 85.1,20.41 84.44,20.05 C83.78,19.7 82.67,19.52 81.11,19.52 L79.87,19.52 L79.87,33.99 L75.11,33.99 L75.11,33.98 Z" id="Shape"></path>
                <path d="M106.2,20.82 L117.22,20.82 C117.11,19.09 116.59,17.76 115.67,16.82 C114.75,15.89 113.51,15.41 111.96,15.41 C110.4,15.41 109.13,15.88 108.14,16.82 C107.15,17.75 106.5,19.09 106.2,20.82 L106.2,20.82 Z M121.5,23.41 L106.1,23.41 C106.21,25.51 106.91,27.17 108.21,28.41 C109.5,29.65 111.18,30.27 113.22,30.27 C116.08,30.27 118.71,29.38 121.12,27.6 L121.12,31.84 C119.79,32.73 118.47,33.36 117.16,33.74 C115.85,34.12 114.32,34.31 112.55,34.31 C110.14,34.31 108.18,33.81 106.7,32.81 C105.21,31.81 104.01,30.47 103.12,28.78 C102.23,27.09 101.78,25.13 101.78,22.91 C101.78,19.58 102.72,16.87 104.61,14.78 C106.5,12.69 108.95,11.65 111.96,11.65 C114.86,11.65 117.18,12.67 118.91,14.7 C120.64,16.73 121.5,19.45 121.5,22.87 L121.5,23.41 Z" id="Shape"></path>
                <path d="M124.14,32.41 L124.14,27.75 C125.36,28.61 126.61,29.3 127.89,29.83 C129.17,30.36 130.24,30.62 131.12,30.62 C132.02,30.62 132.8,30.4 133.45,29.96 C134.1,29.52 134.43,28.98 134.43,28.36 C134.43,27.73 134.22,27.2 133.8,26.78 C133.38,26.36 132.47,25.75 131.07,24.96 C128.28,23.4 126.45,22.07 125.58,20.97 C124.72,19.87 124.28,18.66 124.28,17.36 C124.28,15.68 124.94,14.31 126.24,13.24 C127.55,12.18 129.24,11.64 131.3,11.64 C133.44,11.64 135.64,12.24 137.89,13.45 L137.89,17.73 C135.32,16.18 133.22,15.4 131.58,15.4 C130.74,15.4 130.06,15.58 129.54,15.94 C129.03,16.3 128.77,16.77 128.77,17.36 C128.77,17.87 129,18.35 129.47,18.82 C129.94,19.28 130.76,19.84 131.93,20.49 L133.48,21.37 C137.13,23.43 138.96,25.72 138.96,28.22 C138.96,30.01 138.26,31.49 136.85,32.63 C135.44,33.78 133.64,34.36 131.43,34.36 C130.13,34.36 128.97,34.22 127.96,33.94 C126.96,33.67 125.68,33.16 124.14,32.41" id="Path"></path>
                <path d="M153.23,15.94 C151.15,15.94 149.44,16.62 148.11,17.99 C146.78,19.35 146.11,21.09 146.11,23.2 C146.11,25.3 146.79,27 148.16,28.33 C149.52,29.65 151.28,30.32 153.42,30.32 C155.54,30.32 157.29,29.65 158.65,28.31 C160,26.97 160.68,25.25 160.68,23.16 C160.68,21.08 159.97,19.36 158.56,18 C157.15,16.62 155.37,15.94 153.23,15.94 M153.47,12.03 C156.8,12.03 159.57,13.1 161.78,15.25 C163.99,17.4 165.09,20.1 165.09,23.36 C165.09,26.52 163.97,29.14 161.73,31.23 C159.49,33.32 156.68,34.36 153.28,34.36 C150,34.36 147.25,33.3 145.04,31.18 C142.84,29.06 141.73,26.42 141.73,23.24 C141.73,20.03 142.85,17.37 145.08,15.23 C147.31,13.1 150.11,12.03 153.47,12.03" id="Shape"></path>
                <path d="M173.56,12.08 L173.56,17.1 L173.8,16.72 C175.9,13.34 177.99,11.65 180.08,11.65 C181.71,11.65 183.42,12.48 185.2,14.13 L182.92,17.94 C181.41,16.51 180.01,15.8 178.73,15.8 C177.33,15.8 176.13,16.46 175.1,17.8 C174.07,19.14 173.56,20.71 173.56,22.54 L173.56,33.99 L169.2,33.99 L169.2,12.09 L173.56,12.09 L173.56,12.08 Z" id="Path"></path>
                <path d="M185.16,15.56 L193.3,7.56 L193.3,12.08 L200.23,12.08 L200.23,15.99 L193.3,15.99 L193.3,26.71 C193.3,29.21 194.34,30.46 196.42,30.46 C197.97,30.46 199.62,29.95 201.35,28.91 L201.35,32.96 C199.68,33.9 197.87,34.37 195.9,34.37 C193.92,34.37 192.27,33.79 190.95,32.63 C190.54,32.28 190.2,31.89 189.93,31.45 C189.66,31.01 189.43,30.44 189.25,29.74 C189.07,29.03 188.98,27.69 188.98,25.7 L188.98,15.99 L185.17,15.99 L185.17,15.56 L185.16,15.56 Z" id="Path"></path>
                <path d="M202.41,32.41 L202.41,27.75 C203.63,28.61 204.88,29.3 206.16,29.83 C207.44,30.36 208.51,30.62 209.38,30.62 C210.28,30.62 211.06,30.4 211.71,29.96 C212.36,29.52 212.69,28.98 212.69,28.36 C212.69,27.73 212.48,27.2 212.06,26.78 C211.64,26.36 210.73,25.75 209.33,24.96 C206.54,23.4 204.71,22.07 203.84,20.97 C202.98,19.87 202.55,18.66 202.55,17.36 C202.55,15.68 203.2,14.31 204.51,13.24 C205.82,12.18 207.51,11.64 209.57,11.64 C211.71,11.64 213.91,12.24 216.17,13.45 L216.17,17.73 C213.6,16.18 211.49,15.4 209.86,15.4 C209.02,15.4 208.34,15.58 207.82,15.94 C207.31,16.3 207.05,16.77 207.05,17.36 C207.05,17.87 207.28,18.35 207.75,18.82 C208.22,19.28 209.04,19.84 210.21,20.49 L211.75,21.37 C215.4,23.43 217.23,25.72 217.23,28.22 C217.23,30.01 216.53,31.49 215.12,32.63 C213.72,33.78 211.91,34.36 209.71,34.36 C208.41,34.36 207.25,34.22 206.23,33.94 C205.23,33.67 203.95,33.16 202.41,32.41" id="Path"></path>
            </g>
        </g>
    </g>
</svg>